<svg width="577" height="512" viewBox="0 0 577 512" fill="none" xmlns="http://www.w3.org/2000/svg">
<path d="M161.985 71.5242V440.476C161.985 445.276 163.892 449.88 167.286 453.274L220.675 506.662C232.076 518.064 251.572 509.989 251.572 493.864L251.572 18.1357C251.572 2.01084 232.076 -6.06449 220.675 5.33746L167.286 58.726C163.892 62.1203 161.985 66.7239 161.985 71.5242Z" fill="black"/>
<path d="M392.353 440.476V71.5242C392.353 66.724 390.446 62.1203 387.052 58.726L333.663 5.33746C322.261 -6.06449 302.765 2.01086 302.765 18.1357V493.864C302.765 509.989 322.261 518.064 333.663 506.662L387.052 453.274C390.446 449.88 392.353 445.276 392.353 440.476Z" fill="black"/>
<path d="M443.545 158.916V353.084C443.545 369.209 463.04 377.284 474.442 365.882L571.527 268.798C578.595 261.73 578.595 250.27 571.527 243.202L474.442 146.118C463.04 134.716 443.545 142.791 443.545 158.916Z" fill="black"/>
<path d="M123.59 204.807C151.863 233.08 151.863 278.92 123.59 307.193C95.3172 335.466 49.4777 335.466 21.2047 307.193C-7.06824 278.92 -7.06824 233.08 21.2047 204.807C49.4777 176.534 95.3172 176.534 123.59 204.807Z" fill="black"/>
</svg>
