<svg width="577" height="512" viewBox="0 0 577 512" fill="none" xmlns="http://www.w3.org/2000/svg">
<path d="M180.147 71.5312V440.484L233.542 493.863V18.1344L180.147 71.5312ZM302.849 18.1344C302.85 2.01021 322.367 -6.06417 333.773 5.33758L387.168 58.7344C390.561 62.1283 392.472 66.7328 392.472 71.5312V440.484L392.384 442.269C391.971 446.411 390.138 450.311 387.168 453.28L333.773 506.66L331.545 508.568C320.775 516.463 305.122 509.987 303.079 496.797L302.849 493.863V18.1344ZM443.675 158.917C443.675 142.793 463.175 134.72 474.58 146.121L571.699 243.211C578.765 250.279 578.768 261.737 571.699 268.804L474.58 365.877L472.352 367.803C461.583 375.679 445.945 369.198 443.905 356.014L443.675 353.08V158.917ZM21.2166 204.802C49.4968 176.536 95.3419 176.536 123.622 204.802C151.904 233.075 151.904 278.922 123.622 307.195L120.917 309.758C93.4067 334.603 51.4321 334.603 23.9217 309.758L21.2166 307.195C-6.18027 279.806 -7.04766 235.927 18.6352 207.507L21.2166 204.802ZM110.821 217.599C89.6116 196.401 55.2271 196.401 34.0173 217.599C12.8062 238.804 12.8062 273.193 34.0173 294.398C55.2275 315.598 89.6112 315.598 110.821 294.398C132.033 273.193 132.033 238.804 110.821 217.599ZM461.78 353.08L558.899 256.007L461.78 158.917V353.08ZM251.647 493.863L251.435 496.797C249.393 509.985 233.739 516.456 222.969 508.568L220.741 506.66L167.328 453.28C164.359 450.312 162.543 446.41 162.13 442.269L162.042 440.484V71.5312C162.042 67.3344 163.49 63.2795 166.126 60.06L167.328 58.7344L220.741 5.33758C232.146 -6.06418 251.646 2.0102 251.647 18.1344V493.863ZM320.954 493.863L374.367 440.484V71.5312L320.954 18.1344V493.863Z" fill="black"/>
</svg>
