<svg width="1216" height="512" viewBox="0 0 1216 512" fill="none" xmlns="http://www.w3.org/2000/svg">
<path d="M168.194 58.728L221.586 5.33553C232.988 -6.06312 252.48 2.0111 252.482 18.1337V493.866L252.257 496.791C250.218 509.982 234.578 516.455 223.811 508.564L221.586 506.664L168.194 453.272C165.224 450.301 163.392 446.405 162.982 442.261L162.894 440.474V71.5261C162.894 67.3256 164.354 63.2736 166.994 60.0528L168.194 58.728ZM234.384 493.866V18.1337L180.992 71.5261V440.474L234.384 493.866Z" fill="black"/>
<path d="M387.963 453.272L334.571 506.664C323.169 518.063 303.677 509.989 303.675 493.866V18.1337L303.9 15.2091C305.939 2.01796 321.578 -4.45483 332.346 3.4358L334.571 5.33553L387.963 58.728C390.933 61.6986 392.764 65.5951 393.175 69.7389L393.262 71.5261V440.474C393.262 444.674 391.802 448.726 389.163 451.947L387.963 453.272ZM321.772 18.1337V493.866L375.165 440.474V71.5261L321.772 18.1337Z" fill="black"/>
<path d="M492.975 247.344C475.63 247.344 461.82 245.081 451.545 240.556C441.269 236.031 433.869 229.621 429.345 221.326C424.914 212.936 422.699 202.991 422.699 191.49C422.699 171.505 428.355 157.082 439.667 148.221C451.073 139.266 468.843 134.788 492.975 134.788C517.108 134.788 534.83 139.266 546.142 148.221C557.548 157.082 563.252 171.505 563.252 191.49C563.252 202.991 560.989 212.936 556.464 221.326C552.034 229.621 544.681 236.031 534.406 240.556C524.131 245.081 510.32 247.344 492.975 247.344ZM492.975 239.001C505.796 239.001 516.118 237.634 523.942 234.9C531.766 232.167 537.658 228.49 541.617 223.871C545.671 219.252 548.405 214.161 549.819 208.6C551.233 202.944 551.94 197.24 551.94 191.49C551.94 173.956 547.273 161.513 537.941 154.16C528.608 146.807 513.62 143.131 492.975 143.131C472.331 143.131 457.342 146.807 448.01 154.16C438.677 161.513 434.011 173.956 434.011 191.49C434.011 197.24 434.718 202.944 436.132 208.6C437.546 214.161 440.233 219.252 444.192 223.871C448.245 228.49 454.184 232.167 462.008 234.9C469.833 237.634 480.155 239.001 492.975 239.001Z" fill="black"/>
<path d="M599.954 293.582C597.22 293.582 595.617 292.451 595.146 290.188C594.675 288.02 594.439 285.569 594.439 282.835V144.545C594.439 141.528 595.005 139.643 596.136 138.889C597.267 138.04 598.493 137.616 599.812 137.616C601.415 137.616 602.688 138.04 603.63 138.889C604.573 139.643 605.044 141.528 605.044 144.545V163.21C606.741 157.177 610.088 152.322 615.084 148.645C620.08 144.875 625.83 142 632.335 140.02C638.839 138.04 645.391 136.673 651.989 135.919C658.682 135.165 664.48 134.788 669.382 134.788C680.694 134.788 691.063 136.438 700.49 139.737C710.011 143.037 717.647 148.693 723.397 156.705C729.147 164.624 732.023 175.7 732.023 189.935C732.023 211.051 726.555 225.898 715.62 234.476C704.779 243.054 689.367 247.344 669.382 247.344C654.11 247.344 641.243 245.694 630.779 242.395C620.316 239.095 611.879 235.702 605.468 232.214V283.684C605.468 286.135 605.233 288.397 604.761 290.471C604.29 292.545 602.688 293.582 599.954 293.582ZM669.382 239.001C687.481 239.001 700.537 235.136 708.55 227.406C716.657 219.582 720.711 207.091 720.711 189.935C720.711 178.057 718.401 168.724 713.782 161.937C709.163 155.056 702.988 150.201 695.258 147.373C687.528 144.545 678.903 143.131 669.382 143.131C663.726 143.225 657.551 143.696 650.858 144.545C644.26 145.299 637.849 146.713 631.628 148.787C625.406 150.861 619.939 153.736 615.225 157.412C610.606 161.089 607.448 165.896 605.751 171.835V226.133C613.858 229.15 623.191 232.072 633.749 234.9C644.401 237.634 656.279 239.001 669.382 239.001Z" fill="black"/>
<path d="M824.72 247.485C801.153 247.485 784.138 242.583 773.674 232.779C763.21 222.881 757.978 209.118 757.978 191.49C757.978 176.879 760.948 165.472 766.887 157.271C772.92 149.07 781.074 143.272 791.349 139.879C801.624 136.485 813.078 134.788 825.709 134.788C845.317 134.788 859.976 138.559 869.685 146.1C879.489 153.547 884.391 164.247 884.391 178.198C884.391 180.744 884.014 183.76 883.26 187.248C882.506 190.642 881.752 192.338 880.997 192.338L769.29 190.924C769.667 209.495 774.475 222.174 783.713 228.961C793.046 235.749 806.667 239.142 824.578 239.142C835.136 239.142 843.95 238.2 851.02 236.314C858.185 234.335 863.935 232.167 868.271 229.81C872.702 227.359 875.954 225.426 878.028 224.012C878.311 223.824 878.688 223.73 879.159 223.73C880.196 223.73 881.139 224.248 881.987 225.285C882.93 226.228 883.401 227.265 883.401 228.396C883.401 229.433 882.93 230.281 881.987 230.941C880.95 231.978 878.264 233.863 873.927 236.597C869.685 239.237 863.511 241.735 855.404 244.091C847.391 246.354 837.163 247.485 824.72 247.485ZM769.432 183.996H876.048V177.35C876.048 171.034 874.446 165.331 871.241 160.24C868.036 155.056 862.757 150.908 855.404 147.797C848.051 144.686 838.153 143.131 825.709 143.131C808.27 143.131 794.695 146.147 784.986 152.181C775.371 158.214 770.186 168.819 769.432 183.996Z" fill="black"/>
<path d="M920.528 245.93C917.888 245.93 916.191 244.846 915.437 242.677C914.777 240.509 914.447 238.2 914.447 235.749V144.121C914.447 142.518 914.777 141.057 915.437 139.737C916.097 138.323 917.747 137.616 920.386 137.616C922.743 137.616 924.204 138.276 924.77 139.596C925.429 140.821 925.759 142.33 925.759 144.121V159.675C931.038 152.322 937.119 146.902 944 143.414C950.882 139.831 957.952 137.522 965.21 136.485C972.469 135.354 979.303 134.788 985.714 134.788C999.194 134.788 1009.85 136.438 1017.67 139.737C1025.59 142.942 1031.24 148.316 1034.64 155.857C1038.03 163.398 1039.73 173.721 1039.73 186.824V235.749C1039.73 238.2 1039.3 240.509 1038.46 242.677C1037.7 244.846 1036.19 245.93 1033.93 245.93C1031.2 245.93 1029.6 244.846 1029.12 242.677C1028.65 240.509 1028.42 238.2 1028.42 235.749V186.824C1028.42 177.02 1027.33 168.913 1025.16 162.503C1023 155.998 1018.8 151.144 1012.58 147.938C1006.45 144.733 997.356 143.131 985.289 143.131C977.937 143.131 970.065 143.979 961.675 145.676C953.38 147.373 945.886 150.295 939.193 154.443C932.5 158.591 928.022 164.388 925.759 171.835V235.749C925.759 238.2 925.477 240.509 924.911 242.677C924.345 244.846 922.884 245.93 920.528 245.93Z" fill="black"/>
<path d="M602.773 144.545C602.773 143.132 602.664 142.11 602.491 141.416L602.225 140.656L602.119 140.568C601.693 140.184 601 139.879 599.804 139.879C599.013 139.88 598.255 140.117 597.488 140.692L597.4 140.78C597.357 140.823 597.184 141.005 597.029 141.522C596.834 142.174 596.693 143.156 596.693 144.545V282.835C596.693 284.141 596.759 285.366 596.87 286.512L597.365 289.711L597.648 290.489C597.758 290.669 597.877 290.789 598.001 290.878C598.296 291.086 598.873 291.318 599.945 291.319C601.052 291.319 601.668 291.112 601.978 290.913C602.224 290.753 602.44 290.506 602.561 289.976C602.99 288.089 603.198 285.991 603.198 283.684V228.414L606.556 230.234C612.791 233.626 621.078 236.964 631.46 240.238C641.634 243.446 654.254 245.081 669.373 245.081C689.066 245.081 703.918 240.855 714.215 232.709L716.071 231.135C725.029 222.958 729.752 209.427 729.752 189.935C729.752 175.97 726.936 165.423 721.568 158.031C716.098 150.409 708.843 145.026 699.757 141.876C690.601 138.671 680.463 137.051 669.373 137.051C666.98 137.051 664.359 137.148 661.508 137.333L652.246 138.164C645.789 138.902 639.372 140.237 632.998 142.176C626.728 144.085 621.219 146.853 616.454 150.448L616.419 150.466C612.306 153.493 609.434 157.374 607.758 162.149C609.418 159.707 611.441 157.538 613.82 155.645L613.838 155.627L617.673 152.905C621.662 150.338 626.079 148.259 630.912 146.648C637.274 144.528 643.826 143.073 650.567 142.3L660.341 141.293C663.466 141.054 666.465 140.916 669.338 140.868H669.373L672.997 140.939C681.335 141.256 689.016 142.688 696.027 145.252C704.205 148.243 710.764 153.396 715.647 160.665L717.397 163.51C721.176 170.447 722.964 179.311 722.964 189.935C722.964 206.3 719.357 218.944 711.705 227.406L710.115 229.032C701.482 237.358 687.709 241.263 669.373 241.263C656.121 241.263 644.056 239.879 633.192 237.092H633.157C622.55 234.251 613.152 231.301 604.965 228.254L603.48 227.706V171.517L603.569 171.217C604.339 168.521 605.409 166.034 606.75 163.758L602.773 163.21V144.545ZM882.129 178.198C882.129 164.849 877.481 154.861 868.325 147.903L868.29 147.885C859.152 140.791 845.089 137.051 825.71 137.051C813.28 137.051 802.068 138.728 792.057 142.035C782.208 145.288 774.442 150.792 768.708 158.579L768.725 158.597C763.165 166.275 760.241 177.152 760.241 191.49C760.241 208.646 765.316 221.758 775.23 231.135C785.075 240.36 801.38 245.223 824.72 245.223C837.037 245.223 847.031 244.099 854.768 241.917L860.407 240.15C863.9 238.962 866.882 237.751 869.368 236.526L872.726 234.671C877.117 231.902 879.558 230.154 880.379 229.333L880.521 229.209L880.698 229.085C881.107 228.797 881.139 228.604 881.139 228.396C881.139 227.971 880.979 227.493 880.379 226.893L880.22 226.717C879.676 226.058 879.329 225.992 879.16 225.992C878.969 225.992 879.079 226.039 879.284 225.904L879.266 225.886C877.101 227.36 873.792 229.342 869.368 231.789C864.825 234.258 858.877 236.483 851.622 238.488L851.604 238.506C844.281 240.459 835.254 241.405 824.579 241.405C806.441 241.405 792.268 237.981 782.388 230.8L782.371 230.782C772.291 223.375 767.412 209.81 767.029 190.978L766.976 188.627L769.326 188.662L880.079 190.058C880.356 189.409 880.699 188.339 881.051 186.753C881.781 183.372 882.129 180.529 882.129 178.198ZM560.989 191.49C560.989 171.919 555.409 158.29 544.746 150.006C534.024 141.519 516.912 137.051 492.975 137.051C470.538 137.051 454.054 140.963 443.167 148.451L441.063 150.006C430.492 158.288 424.961 171.914 424.961 191.49C424.961 202.698 427.118 212.264 431.342 220.265C435.586 228.033 442.566 234.13 452.464 238.488C462.338 242.835 475.794 245.081 492.975 245.081C510.156 245.081 523.613 242.835 533.487 238.488C543.389 234.128 550.319 228.03 554.467 220.265L555.987 217.172C559.297 209.832 560.989 201.291 560.989 191.49ZM923.489 144.121C923.489 142.603 923.219 141.488 922.782 140.674L922.676 140.497L924.77 139.596L922.694 140.48C922.66 140.403 922.592 140.302 922.323 140.179C921.989 140.028 921.374 139.879 920.378 139.879C917.974 139.88 917.555 140.531 917.48 140.692L917.462 140.745C916.972 141.724 916.702 142.838 916.702 144.121V235.749C916.702 237.97 917.009 240.033 917.586 241.953C917.819 242.611 918.132 242.979 918.487 243.208C918.874 243.455 919.505 243.666 920.52 243.667C921.356 243.667 921.801 243.473 922.04 243.296C922.267 243.127 922.546 242.813 922.729 242.112C923.242 240.147 923.489 238.025 923.489 235.749V171.499L923.595 171.181C926.02 163.201 930.846 156.95 938.001 152.516C944.937 148.218 952.689 145.213 961.226 143.467L967.518 142.335C973.717 141.365 979.639 140.869 985.282 140.868C997.461 140.868 1006.99 142.477 1013.6 145.924C1020.33 149.392 1024.95 154.704 1027.31 161.778L1028.11 164.376C1029.84 170.619 1030.67 178.118 1030.67 186.824V235.749C1030.67 238.055 1030.91 240.205 1031.34 242.2C1031.47 242.801 1031.7 243.075 1031.94 243.243C1032.25 243.447 1032.83 243.666 1033.92 243.667C1034.69 243.667 1035.15 243.488 1035.44 243.278C1035.74 243.066 1036.07 242.681 1036.33 241.935L1036.35 241.847L1036.84 240.415C1037.26 238.942 1037.46 237.389 1037.46 235.749V186.824C1037.46 173.88 1035.79 163.922 1032.58 156.794C1029.43 149.803 1024.21 144.835 1016.81 141.841L1016.8 141.823C1009.37 138.689 999.041 137.051 985.706 137.051C980.998 137.051 976.044 137.361 970.841 137.987L965.556 138.712L965.538 138.73C958.548 139.728 951.72 141.958 945.053 145.429H945.018C938.513 148.726 932.693 153.892 927.59 161L923.489 166.709V144.121ZM549.677 191.49C549.677 174.313 545.107 162.696 536.544 155.945C527.813 149.066 513.449 145.393 492.975 145.393C472.502 145.393 458.138 149.066 449.406 155.945C440.843 162.696 436.273 174.313 436.273 191.49C436.273 197.047 436.957 202.56 438.324 208.034L439.543 211.87C440.982 215.607 443.087 219.114 445.889 222.386L447.373 223.942C451.034 227.486 456.123 230.445 462.751 232.762C470.241 235.379 480.286 236.739 492.975 236.739C505.665 236.739 515.709 235.379 523.2 232.762C530.775 230.114 536.281 226.628 539.903 222.404L539.92 222.386L542.554 219.028C544.953 215.597 546.637 211.928 547.627 208.034C548.994 202.56 549.677 197.047 549.677 191.49ZM718.44 189.935C718.44 178.319 716.189 169.488 711.917 163.21L711.9 163.192C707.547 156.71 701.762 152.156 694.49 149.494C687.047 146.771 678.684 145.394 669.391 145.393C666.618 145.44 663.714 145.586 660.677 145.817L651.15 146.79H651.115C644.671 147.526 638.414 148.902 632.344 150.926C626.343 152.926 621.105 155.694 616.613 159.198C612.452 162.516 609.591 166.835 608.005 172.224V224.525C615.689 227.323 624.465 230.063 634.341 232.709C644.773 235.385 656.433 236.738 669.373 236.739C687.235 236.739 699.593 232.912 706.986 225.78L709.62 222.863C715.396 215.545 718.44 204.69 718.44 189.935ZM873.787 177.35C873.787 171.438 872.299 166.153 869.332 161.442L869.315 161.425C866.422 156.748 861.572 152.866 854.521 149.883C847.559 146.937 838.001 145.393 825.71 145.393C808.49 145.393 795.398 148.386 786.189 154.107L786.171 154.089C777.871 159.302 773.037 168.343 771.907 181.733H873.787V177.35ZM554.202 191.49C554.202 197.428 553.468 203.315 552.01 209.148C550.504 215.068 547.573 220.46 543.314 225.32L543.332 225.338C539.035 230.35 532.754 234.219 524.684 237.039C516.527 239.888 505.924 241.263 492.975 241.263C480.026 241.263 469.423 239.888 461.266 237.039C453.197 234.22 446.88 230.353 442.495 225.356L442.477 225.338C438.308 220.473 435.445 215.081 433.94 209.165C432.482 203.332 431.748 197.428 431.748 191.49C431.748 173.604 436.515 160.331 446.613 152.375C456.547 144.552 472.164 140.868 492.975 140.868C513.787 140.868 529.404 144.552 539.337 152.375C549.435 160.331 554.202 173.604 554.202 191.49ZM565.514 191.49C565.514 203.289 563.198 213.622 558.462 222.404L558.444 222.386C553.732 231.208 545.966 237.937 535.325 242.624C524.649 247.326 510.481 249.606 492.975 249.606C475.47 249.606 461.301 247.326 450.626 242.624C439.986 237.937 432.171 231.215 427.365 222.404L427.347 222.386C422.712 213.609 420.436 203.282 420.436 191.49C420.436 171.098 426.219 155.877 438.271 146.436L440.586 144.739C452.577 136.482 470.16 132.526 492.975 132.526C517.289 132.526 535.617 137.025 547.521 146.436C559.666 155.875 565.514 171.095 565.514 191.49ZM886.654 178.198C886.654 180.954 886.246 184.138 885.47 187.725C885.083 189.464 884.667 190.928 884.197 191.985C883.967 192.504 883.669 193.062 883.261 193.523C882.861 193.972 882.101 194.601 880.998 194.601H880.963L771.66 193.205C772.373 210.174 777.017 221.219 785.04 227.123L788.539 229.386C797.168 234.309 809.109 236.88 824.579 236.88C832.411 236.88 839.208 236.354 844.994 235.324L850.438 234.123C857.492 232.172 863.052 230.069 867.176 227.83L872.885 224.578C874.477 223.632 875.766 222.814 876.756 222.139L876.774 222.121L877.976 221.609C878.382 221.507 878.785 221.467 879.16 221.467L880.521 221.644C881.728 221.967 882.732 222.722 883.561 223.677C884.846 224.962 885.664 226.558 885.664 228.396C885.664 230.128 884.851 231.514 883.561 232.532L883.579 232.549C882.322 233.802 879.396 235.817 875.13 238.506C870.634 241.304 864.228 243.885 856.041 246.265C847.756 248.605 837.279 249.747 824.72 249.747C802.412 249.747 785.44 245.414 774.275 236.314L772.119 234.423C761.106 224.005 755.717 209.591 755.717 191.49C755.717 176.607 758.733 164.669 765.049 155.945L765.067 155.928L767.541 152.817C773.565 145.845 781.289 140.811 790.643 137.722C801.18 134.243 812.879 132.526 825.71 132.526C845.526 132.526 860.766 136.325 871.047 144.297L872.956 145.835C882.126 153.681 886.654 164.56 886.654 178.198ZM878.311 186.258H767.046L767.17 183.89C767.947 168.25 773.344 156.824 783.785 150.272L787.797 148.027C797.568 143.194 810.261 140.868 825.71 140.868C838.305 140.868 848.545 142.435 856.288 145.711C863.932 148.946 869.632 153.356 873.15 159.038L874.37 161.124C877.002 166.051 878.311 171.473 878.311 177.35V186.258ZM607.298 153.294C609.048 150.864 611.185 148.708 613.714 146.843L617.78 144.068C621.985 141.466 626.62 139.402 631.672 137.864C638.305 135.845 644.995 134.445 651.734 133.675L661.207 132.809C664.147 132.617 666.869 132.526 669.373 132.526C680.907 132.526 691.545 134.205 701.242 137.598C711.191 141.046 719.199 146.983 725.227 155.38L727.383 158.685C732.052 166.763 734.277 177.243 734.277 189.935C734.277 211.376 728.726 227.069 717.008 236.261C705.625 245.262 689.638 249.606 669.373 249.606C653.958 249.605 640.848 247.94 630.099 244.551C621.243 241.758 613.791 238.828 607.722 235.855V283.684C607.722 286.277 607.475 288.706 606.962 290.966C606.612 292.505 605.788 293.818 604.435 294.695C603.141 295.532 601.569 295.844 599.945 295.844C598.296 295.843 596.706 295.506 595.403 294.589C594.056 293.638 593.26 292.245 592.928 290.665L592.363 286.936C592.237 285.631 592.168 284.264 592.168 282.835V144.545C592.168 142.92 592.328 141.449 592.698 140.214C593.067 138.99 593.712 137.772 594.873 136.998C596.341 135.923 597.999 135.356 599.804 135.354C601.761 135.354 603.576 135.881 605.018 137.121L605.071 137.157L605.142 137.21C606.113 138.032 606.612 139.203 606.892 140.32C607.189 141.512 607.298 142.942 607.298 144.545V153.294ZM928.014 153.188C932.474 148.134 937.451 144.189 942.95 141.399L948.323 138.889C953.724 136.608 959.242 135.047 964.884 134.24C972.231 133.096 979.172 132.526 985.706 132.526C999.301 132.526 1010.28 134.184 1018.49 137.634C1026.93 141.048 1033.06 146.832 1036.7 154.92C1040.28 162.874 1041.98 173.567 1041.98 186.824V235.749C1041.98 238.467 1041.53 241.064 1040.57 243.508L1040.55 243.49C1040.06 244.878 1039.27 246.098 1038.08 246.955C1036.86 247.828 1035.42 248.192 1033.92 248.192C1032.29 248.191 1030.71 247.867 1029.42 246.99C1028.06 246.074 1027.25 244.717 1026.91 243.155C1026.4 240.814 1026.15 238.343 1026.15 235.749V186.824C1026.15 177.166 1025.08 169.325 1023.02 163.227C1021.04 157.301 1017.25 152.893 1011.55 149.953L1011.53 149.936C1005.88 146.984 997.214 145.393 985.282 145.393C979.9 145.394 974.215 145.852 968.225 146.79L962.127 147.885C954.073 149.533 946.836 152.373 940.387 156.37C934.237 160.181 930.14 165.441 928.014 172.224V235.749C928.014 238.373 927.713 240.873 927.095 243.243C926.713 244.707 925.977 246.022 924.744 246.937C923.522 247.844 922.04 248.192 920.52 248.192C918.906 248.191 917.371 247.857 916.066 247.025C914.73 246.172 913.828 244.912 913.308 243.42L913.273 243.331C912.544 240.934 912.177 238.403 912.177 235.749V144.121C912.177 142.221 912.569 140.427 913.379 138.783L913.927 137.864C915.351 135.935 917.873 135.355 920.378 135.354C922.933 135.354 925.572 136.063 926.741 138.518C927.622 140.154 928.014 142.06 928.014 144.121V153.188Z" fill="black"/>
<path d="M472.12 390.139C467.369 390.139 462.116 389.957 456.361 389.594C450.606 389.291 445.019 388.534 439.598 387.323C434.245 386.051 429.628 384.053 425.747 381.328C424.81 380.661 424.341 379.874 424.341 378.966C424.341 377.028 425.211 376.059 426.951 376.059C427.486 376.059 427.888 376.18 428.156 376.422C433.777 379.935 440.234 382.206 447.528 383.235C454.822 384.265 462.685 384.779 471.116 384.779C477.808 384.779 484.098 384.355 489.987 383.508C495.875 382.66 500.626 381.176 504.24 379.057C507.92 376.937 509.76 374 509.76 370.245C509.76 366.551 508.154 363.796 504.942 361.979C501.797 360.162 497.615 358.921 492.396 358.255C487.243 357.589 481.555 357.195 475.332 357.074C469.109 356.953 462.852 356.771 456.562 356.529C450.338 356.287 444.617 355.651 439.398 354.621C434.245 353.531 430.063 351.745 426.851 349.262C423.706 346.779 422.133 343.236 422.133 338.634C422.133 333.063 424.241 328.793 428.457 325.826C432.739 322.798 438.193 320.709 444.818 319.558C451.443 318.407 458.302 317.832 465.395 317.832C473.96 317.832 482.09 318.498 489.786 319.831C497.548 321.163 504.608 323.343 510.965 326.371C512.036 326.916 512.638 327.764 512.772 328.914C512.772 329.702 512.504 330.398 511.969 331.004C511.433 331.609 510.831 331.912 510.162 331.912C509.76 331.912 509.493 331.851 509.359 331.73C503.671 329.126 497.18 327.067 489.886 325.553C482.592 323.979 474.562 323.192 465.796 323.192C459.774 323.192 454.019 323.676 448.532 324.645C443.112 325.553 438.695 327.128 435.282 329.369C431.87 331.609 430.163 334.698 430.163 338.634C430.163 342.146 431.736 344.75 434.881 346.446C438.093 348.081 442.275 349.201 447.428 349.807C452.647 350.413 458.368 350.776 464.592 350.897C470.882 351.018 477.139 351.23 483.362 351.533C489.585 351.836 495.273 352.562 500.426 353.713C505.645 354.864 509.827 356.741 512.972 359.345C516.184 361.888 517.79 365.522 517.79 370.245C517.79 375.211 515.616 379.147 511.266 382.054C506.983 384.9 501.362 386.959 494.403 388.231C487.444 389.503 480.016 390.139 472.12 390.139Z" fill="black"/>
<path d="M584.897 390.139C572.584 390.139 562.781 388.685 555.487 385.779C548.193 382.872 542.94 378.754 539.728 373.425C536.583 368.035 535.011 361.646 535.011 354.258C535.011 341.42 539.026 332.154 547.056 326.462C555.153 320.709 567.766 317.832 584.897 317.832C602.028 317.832 614.608 320.709 622.638 326.462C630.735 332.154 634.783 341.42 634.783 354.258C634.783 361.646 633.177 368.035 629.965 373.425C626.82 378.754 621.601 382.872 614.307 385.779C607.013 388.685 597.21 390.139 584.897 390.139ZM584.897 384.779C593.998 384.779 601.325 383.901 606.879 382.145C612.433 380.389 616.616 378.027 619.426 375.06C622.304 372.092 624.244 368.822 625.248 365.249C626.252 361.616 626.753 357.952 626.753 354.258C626.753 342.994 623.441 335 616.816 330.277C610.192 325.553 599.552 323.192 584.897 323.192C570.242 323.192 559.603 325.553 552.978 330.277C546.353 335 543.041 342.994 543.041 354.258C543.041 357.952 543.543 361.616 544.546 365.249C545.55 368.822 547.457 372.092 550.268 375.06C553.145 378.027 557.361 380.389 562.915 382.145C568.469 383.901 575.796 384.779 584.897 384.779Z" fill="black"/>
<path d="M695.667 390.139C681.347 390.139 671.108 387.595 664.952 382.508C658.796 377.361 655.718 369.064 655.718 357.619V326.189C655.718 324.615 655.952 323.131 656.42 321.738C656.889 320.345 657.993 319.649 659.733 319.649C661.673 319.649 662.811 320.345 663.145 321.738C663.547 323.131 663.748 324.615 663.748 326.189V357.619C663.748 364.341 664.618 369.7 666.357 373.697C668.164 377.634 671.376 380.48 675.993 382.236C680.611 383.932 687.168 384.779 695.667 384.779C705.035 384.779 712.998 383.477 719.556 380.873C726.181 378.269 731.4 375.665 735.215 373.061V326.189C735.215 324.615 735.382 323.131 735.716 321.738C736.118 320.345 737.189 319.649 738.928 319.649C740.936 319.649 742.14 320.345 742.542 321.738C743.01 323.131 743.245 324.615 743.245 326.189V382.872C743.245 384.446 743.01 385.9 742.542 387.232C742.074 388.564 741.036 389.23 739.43 389.23C737.757 389.23 736.62 388.746 736.018 387.777C735.482 386.808 735.215 385.173 735.215 382.872V376.422C733.341 378.421 730.731 380.48 727.385 382.599C724.039 384.719 719.79 386.505 714.638 387.959C709.485 389.412 703.162 390.139 695.667 390.139Z" fill="black"/>
<path d="M773.012 389.23C771.138 389.23 769.967 388.564 769.499 387.232C769.097 385.9 768.896 384.446 768.896 382.872V324.736C768.896 323.343 769.164 322.162 769.699 321.193C770.302 320.164 771.54 319.649 773.413 319.649C774.885 319.649 775.822 320.133 776.224 321.102C776.692 322.071 776.926 323.282 776.926 324.736V335.273C778.399 330.307 781.109 326.583 785.057 324.1C789.072 321.617 793.421 319.952 798.105 319.104C802.79 318.256 806.872 317.832 810.351 317.832C815.504 317.832 819.285 318.074 821.694 318.559C824.103 319.043 826.244 319.528 828.118 320.012C829.523 320.376 830.225 321.284 830.225 322.737C830.225 323.525 829.924 324.251 829.322 324.917C828.787 325.584 827.95 325.917 826.813 325.917C826.545 325.917 826.344 325.917 826.21 325.917C826.144 325.856 825.943 325.796 825.608 325.735C822.998 325.069 820.489 324.554 818.08 324.191C815.671 323.827 813.095 323.646 810.351 323.646C802.455 323.646 795.429 325.069 789.272 327.915C783.183 330.701 779.068 335.091 776.926 341.087V382.872C776.926 384.446 776.692 385.9 776.224 387.232C775.755 388.564 774.685 389.23 773.012 389.23Z" fill="black"/>
<path d="M891.209 390.139C881.105 390.139 872.205 389.109 864.51 387.05C856.881 384.991 850.925 381.388 846.643 376.241C842.36 371.033 840.219 363.705 840.219 354.258C840.219 344.871 842.193 337.544 846.141 332.275C850.156 327.007 855.978 323.282 863.606 321.102C871.235 318.922 880.436 317.832 891.209 317.832C897.098 317.832 903.187 318.377 909.477 319.467C915.835 320.497 921.924 322.374 927.746 325.099C929.151 325.765 929.854 326.704 929.854 327.915C929.854 329.49 928.917 330.277 927.043 330.277C926.441 330.277 925.738 330.125 924.935 329.823C922.794 328.854 919.883 327.855 916.203 326.825C912.522 325.796 908.474 324.948 904.057 324.282C899.708 323.555 895.425 323.192 891.209 323.192C875.885 323.192 864.878 325.614 858.186 330.459C851.561 335.243 848.249 343.176 848.249 354.258C848.249 365.401 851.795 373.273 858.889 377.876C866.049 382.478 876.789 384.779 891.109 384.779C895.392 384.779 899.708 384.446 904.057 383.78C908.474 383.053 912.522 382.175 916.203 381.146C919.883 380.116 922.794 379.117 924.935 378.148C925.738 377.845 926.441 377.694 927.043 377.694C928.917 377.694 929.854 378.481 929.854 380.056C929.854 381.267 929.151 382.206 927.746 382.872C921.924 385.597 915.835 387.504 909.477 388.595C903.187 389.624 897.098 390.139 891.209 390.139Z" fill="black"/>
<path d="M995.153 390.23C978.424 390.23 966.346 387.081 958.918 380.783C951.49 374.424 947.777 365.582 947.777 354.258C947.777 344.871 949.884 337.544 954.1 332.275C958.383 327.007 964.171 323.282 971.465 321.102C978.759 318.922 986.889 317.832 995.856 317.832C1009.77 317.832 1020.18 320.254 1027.07 325.099C1034.03 329.883 1037.51 336.757 1037.51 345.719C1037.51 347.354 1037.24 349.292 1036.71 351.533C1036.17 353.713 1035.64 354.803 1035.1 354.803L955.807 353.895C956.074 365.825 959.487 373.97 966.045 378.33C972.669 382.69 982.339 384.87 995.053 384.87C1002.55 384.87 1008.8 384.265 1013.82 383.053C1018.91 381.782 1022.99 380.389 1026.07 378.875C1029.21 377.3 1031.52 376.059 1032.99 375.151C1033.2 375.029 1033.46 374.969 1033.8 374.969C1034.53 374.969 1035.2 375.302 1035.81 375.968C1036.47 376.574 1036.81 377.24 1036.81 377.967C1036.81 378.633 1036.47 379.178 1035.81 379.602C1035.07 380.268 1033.16 381.479 1030.08 383.235C1027.07 384.931 1022.69 386.536 1016.93 388.05C1011.25 389.503 1003.99 390.23 995.153 390.23ZM955.907 349.444H1031.59V345.174C1031.59 341.117 1030.45 337.453 1028.18 334.183C1025.9 330.852 1022.15 328.188 1016.93 326.189C1011.72 324.191 1004.69 323.192 995.856 323.192C983.477 323.192 973.841 325.129 966.948 329.005C960.123 332.881 956.442 339.694 955.907 349.444Z" fill="black"/>
<path d="M515.529 370.239C515.527 366.091 514.151 363.163 511.569 361.119L511.534 361.083C509.437 359.347 506.761 357.923 503.457 356.859L499.939 355.922C494.933 354.804 489.37 354.099 483.254 353.801C480.152 353.65 477.04 353.518 473.921 353.412L464.554 353.165C461.411 353.104 458.384 352.978 455.486 352.794L447.161 352.051C441.851 351.427 437.382 350.26 433.852 348.463L433.799 348.446C431.935 347.44 430.426 346.101 429.398 344.398C428.367 342.692 427.896 340.739 427.895 338.636C427.895 333.904 430.025 330.123 434.046 327.483C437.79 325.025 442.516 323.354 448.133 322.41L452.411 321.774C456.726 321.216 461.186 320.926 465.791 320.925C474.689 320.925 482.885 321.734 490.359 323.347C497.727 324.876 504.323 326.949 510.155 329.604C510.184 329.579 510.235 329.548 510.279 329.498L510.456 329.003C510.396 328.76 510.303 328.587 509.996 328.42L505.242 326.369C501.991 325.108 498.564 324.043 494.955 323.188L489.405 322.057C481.851 320.749 473.848 320.095 465.402 320.095C458.431 320.095 451.689 320.664 445.199 321.791C438.819 322.9 433.71 324.891 429.769 327.677C426.214 330.182 424.396 333.734 424.396 338.636C424.396 342.651 425.727 345.488 428.231 347.473L430.582 349.029C433.104 350.484 436.179 351.625 439.861 352.405C444.946 353.407 450.531 354.022 456.653 354.261L475.371 354.809C481.661 354.931 487.444 355.332 492.692 356.011C498.069 356.697 502.548 357.998 506.037 360.005C509.958 362.223 512.027 365.734 512.029 370.239C512.029 374.923 509.636 378.561 505.365 381.021L505.348 381.003C501.403 383.311 496.36 384.869 490.306 385.74C484.299 386.605 477.897 387.048 471.111 387.048C462.591 387.048 454.624 386.521 447.214 385.475C439.642 384.406 432.876 382.032 426.958 378.334L426.923 378.317C426.794 378.318 426.71 378.341 426.658 378.352C426.63 378.45 426.605 378.646 426.605 378.971C426.605 379.011 426.614 379.033 426.64 379.077C426.678 379.14 426.789 379.287 427.065 379.483C430.676 382.018 435.01 383.906 440.126 385.122C445.412 386.302 450.85 387.035 456.476 387.331H456.511L464.695 387.737C467.297 387.827 469.771 387.879 472.119 387.879C479.894 387.879 487.19 387.25 494 386.005C500.762 384.769 506.065 382.797 510.014 380.172L511.322 379.2C514.182 376.836 515.529 373.884 515.529 370.239ZM632.521 354.261C632.521 341.916 628.652 333.46 621.332 328.314L621.315 328.296C613.861 322.959 601.862 320.095 584.904 320.095C570.063 320.095 558.987 322.294 551.409 326.422L548.369 328.314C541.114 333.457 537.269 341.909 537.269 354.261C537.27 361.308 538.773 367.275 541.67 372.254L542.837 374.022C545.792 378.013 550.239 381.247 556.323 383.672C563.243 386.43 572.733 387.879 584.904 387.879C597.071 387.878 606.548 386.429 613.467 383.672C620.422 380.9 625.185 377.065 628.013 372.272L629.074 370.345C631.353 365.77 632.52 360.428 632.521 354.261ZM927.519 327.66C927.449 327.565 927.25 327.372 926.777 327.147C921.151 324.515 915.263 322.698 909.119 321.703H909.084C902.915 320.634 896.96 320.095 891.214 320.095C880.581 320.095 871.593 321.17 864.224 323.276C856.971 325.35 851.609 328.844 847.946 333.651L847.928 333.634C844.381 338.375 842.484 345.169 842.484 354.261C842.484 363.387 844.552 370.132 848.387 374.799L849.925 376.496C853.712 380.336 858.728 383.14 865.073 384.856C872.534 386.853 881.257 387.879 891.214 387.879C896.966 387.879 902.928 387.369 909.102 386.359L913.662 385.422C918.18 384.334 922.551 382.804 926.777 380.826L927.519 380.314C927.567 380.25 927.59 380.182 927.59 380.049L927.572 379.996C927.457 379.973 927.284 379.96 927.042 379.96C926.802 379.961 926.379 380.018 925.734 380.261C923.46 381.277 920.469 382.295 916.808 383.319C913.036 384.374 908.902 385.267 904.418 386.005L904.4 386.023C899.94 386.706 895.508 387.048 891.108 387.048C876.621 387.048 865.364 384.73 857.667 379.784L857.649 379.766C849.721 374.617 845.984 365.892 845.984 354.261C845.984 342.737 849.45 333.983 856.854 328.632L859.788 326.776C867.105 322.776 877.695 320.925 891.214 320.925C895.543 320.926 899.933 321.298 904.382 322.039C908.873 322.716 913.026 323.597 916.808 324.655C920.47 325.679 923.459 326.696 925.734 327.713L927.042 328.013C927.289 328.013 927.457 327.965 927.572 327.942L927.59 327.907C927.589 327.78 927.565 327.722 927.519 327.66ZM661.49 326.193C661.49 324.812 661.316 323.529 660.978 322.357L660.942 322.269L660.889 322.127L660.854 322.11C660.767 322.056 660.465 321.916 659.74 321.915C659.159 321.915 658.893 322.036 658.804 322.092L658.556 322.463C658.173 323.606 657.973 324.848 657.973 326.193V357.619C657.973 368.678 660.946 376.196 666.386 380.756L668.666 382.382C674.401 385.93 683.282 387.879 695.674 387.879C703.033 387.878 709.132 387.154 714.021 385.775C719.032 384.362 723.072 382.655 726.181 380.685C726.438 380.523 726.66 380.316 726.906 380.155C726.335 380.418 725.771 380.723 725.174 380.986L720.384 382.983C713.492 385.718 705.233 387.047 695.674 387.048C687.074 387.048 680.191 386.192 675.206 384.361L675.188 384.344C670.102 382.409 666.39 379.192 664.301 374.64L664.283 374.605C662.37 370.211 661.49 364.5 661.49 357.619V326.193ZM774.664 324.743C774.664 323.52 774.463 322.666 774.187 322.092L774.152 322.003C774.069 321.97 773.845 321.915 773.409 321.915C772.663 321.915 772.199 322.02 771.942 322.127C771.725 322.219 771.681 322.302 771.66 322.339C771.365 322.894 771.165 323.668 771.165 324.743V382.877C771.165 384.224 771.327 385.427 771.642 386.5C771.702 386.664 771.77 386.718 771.854 386.765C771.995 386.843 772.34 386.96 773.021 386.96C773.546 386.959 773.785 386.868 773.869 386.818C773.914 386.79 773.996 386.722 774.081 386.483C774.455 385.419 774.664 384.223 774.664 382.877V340.686L774.788 340.333C775.39 338.646 776.145 337.069 777.033 335.613L774.664 335.278V324.743ZM624.496 354.261C624.496 343.425 621.318 336.263 615.499 332.114C609.46 327.81 599.41 325.451 584.904 325.45C570.392 325.45 560.33 327.808 554.29 332.114C548.471 336.263 545.311 343.425 545.311 354.261C545.312 357.743 545.777 361.199 546.725 364.636L547.556 366.987C548.532 369.28 549.959 371.452 551.887 373.491L554.043 375.365C556.44 377.165 559.606 378.731 563.605 379.996C568.85 381.652 575.925 382.523 584.904 382.523C593.884 382.523 600.958 381.654 606.202 379.996C611.532 378.31 615.322 376.102 617.78 373.509L617.797 373.491L619.618 371.406C621.264 369.276 622.396 367.016 623.064 364.636C624.013 361.199 624.496 357.743 624.496 354.261ZM1029.33 345.176C1029.33 341.571 1028.33 338.355 1026.32 335.472L1026.31 335.454C1024.37 332.627 1021.07 330.19 1016.12 328.296C1011.27 326.438 1004.55 325.45 995.851 325.45C983.663 325.451 974.462 327.376 968.048 330.982L968.031 330.965C962.593 334.062 959.327 339.331 958.398 347.173H1029.33V345.176ZM629.021 354.261C629.021 357.186 628.714 360.091 628.12 362.975L627.43 365.856C626.315 369.824 624.15 373.4 621.049 376.602L621.067 376.62C617.904 379.958 613.335 382.483 607.563 384.308C601.702 386.162 594.118 387.048 584.904 387.048C575.686 387.048 568.089 386.162 562.226 384.308C556.458 382.484 551.874 379.958 548.652 376.637L548.617 376.62C546.338 374.213 544.589 371.587 543.385 368.754L542.36 365.856C541.303 362.031 540.787 358.162 540.787 354.261C540.787 342.572 544.231 333.736 551.657 328.437C558.866 323.297 570.108 320.925 584.904 320.925C599.696 320.926 610.924 323.297 618.133 328.437C625.561 333.736 629.021 342.571 629.021 354.261ZM637.045 354.261C637.045 361.973 635.349 368.759 631.902 374.552L631.92 374.569C628.459 380.434 622.778 384.837 615.146 387.879C607.479 390.934 597.356 392.403 584.904 392.404C572.449 392.404 562.312 390.935 554.644 387.879C547.016 384.838 541.326 380.438 537.799 374.587L537.782 374.569C534.401 368.775 532.745 361.974 532.744 354.261C532.744 340.935 536.949 330.861 545.753 324.619L549.2 322.463C557.768 317.781 569.765 315.57 584.904 315.57C602.191 315.57 615.343 318.458 623.948 324.619C632.822 330.858 637.045 340.928 637.045 354.261ZM1039.77 345.724C1039.77 347.588 1039.47 349.707 1038.91 352.051C1038.63 353.19 1038.31 354.219 1037.94 354.985C1037.75 355.362 1037.49 355.809 1037.12 356.187C1036.75 356.569 1036.07 357.069 1035.11 357.071H1035.07L958.186 356.17C958.813 366.41 962.024 372.931 967.306 376.443C973.4 380.454 982.541 382.612 995.056 382.612C1002.44 382.611 1008.5 382.014 1013.28 380.862L1016.83 379.907C1020.17 378.938 1022.89 377.908 1025.05 376.85L1029.08 374.764C1030.2 374.16 1031.11 373.653 1031.8 373.226L1031.82 373.208L1032.85 372.802C1033.18 372.726 1033.51 372.714 1033.8 372.714L1034.88 372.837C1035.91 373.086 1036.78 373.677 1037.48 374.446C1038.42 375.352 1039.07 376.525 1039.07 377.963C1039.07 379.418 1038.32 380.514 1037.3 381.268L1037.32 381.286L1037.26 381.321C1037.18 381.382 1037.11 381.46 1037.02 381.516L1037 381.498C1035.93 382.362 1033.94 383.632 1031.2 385.192C1027.94 387.027 1023.33 388.696 1017.5 390.23C1011.57 391.746 1004.1 392.492 995.162 392.492C978.249 392.492 965.503 389.323 957.461 382.506C949.45 375.648 945.513 366.129 945.512 354.261C945.512 344.558 947.693 336.66 952.335 330.859L952.353 330.841L954.138 328.808C958.513 324.223 964.105 320.936 970.823 318.928C978.358 316.677 986.708 315.57 995.851 315.57C1009.96 315.57 1020.92 318.006 1028.37 323.241C1035.99 328.477 1039.77 336.072 1039.77 345.724ZM1033.85 351.698H961.933L1034.01 352.529C1034.14 352.17 1034.34 351.677 1034.51 350.991C1035.01 348.867 1035.25 347.122 1035.25 345.724C1035.25 337.454 1032.09 331.302 1025.79 326.97L1025.78 326.953C1019.44 322.499 1009.58 320.095 995.851 320.095C987.068 320.095 979.163 321.169 972.114 323.276C965.209 325.34 959.813 328.805 955.852 333.669L955.87 333.687C952.08 338.423 950.037 345.19 950.037 354.261C950.038 365.039 953.552 373.201 960.395 379.059C967.209 384.836 978.618 387.967 995.162 387.967C1003.88 387.967 1010.92 387.249 1016.35 385.864L1020.33 384.733C1024.02 383.596 1026.88 382.434 1028.96 381.268L1032.62 379.094C1033.49 378.542 1034.04 378.16 1034.29 377.928L1034.42 377.786L1034.29 377.645L1034.12 377.486C1033.99 377.347 1033.89 377.279 1033.85 377.256C1032.29 378.194 1030.03 379.422 1027.08 380.897C1023.81 382.508 1019.54 383.953 1014.37 385.245C1009.12 386.512 1002.66 387.136 995.056 387.136C982.143 387.136 971.951 384.935 964.796 380.225C957.352 375.276 953.812 366.213 953.537 353.943L953.484 351.609H953.519L953.643 349.312C954.21 339.011 958.178 331.391 965.839 327.041L968.738 325.574C975.774 322.426 984.861 320.926 995.851 320.925C1004.82 320.925 1012.17 321.934 1017.75 324.071C1023.23 326.17 1027.42 329.068 1030.04 332.891L1031.7 335.719C1033.13 338.632 1033.85 341.792 1033.85 345.176V351.698ZM432.42 338.636C432.42 340.044 432.745 341.15 433.286 342.047C433.829 342.946 434.676 343.761 435.955 344.451C438.845 345.915 442.717 346.977 447.691 347.562L455.769 348.269C458.596 348.448 461.557 348.58 464.642 348.64L474.08 348.887C477.217 348.994 480.346 349.124 483.466 349.276C489.793 349.584 495.615 350.321 500.911 351.503L504.835 352.564C508.559 353.763 511.751 355.416 514.362 357.566C518.202 360.606 520.052 364.946 520.054 370.239C520.054 375.287 518.061 379.455 514.256 382.629L512.524 383.937C507.909 387.004 501.967 389.152 494.813 390.459C487.706 391.758 480.136 392.404 472.119 392.404C467.311 392.404 462.003 392.221 456.211 391.856C450.346 391.545 444.639 390.76 439.101 389.523C433.513 388.195 428.599 386.091 424.449 383.177C423.093 382.213 422.082 380.802 422.08 378.971C422.08 377.709 422.364 376.339 423.317 375.276C424.312 374.17 425.674 373.792 426.958 373.792C427.686 373.793 428.568 373.95 429.345 374.499C434.668 377.824 440.836 380.013 447.851 381.003C455.022 382.015 462.775 382.523 471.111 382.523C477.708 382.523 483.9 382.099 489.67 381.268C495.378 380.446 499.826 379.019 503.103 377.097L505.1 375.665C506.766 374.151 507.504 372.356 507.504 370.239C507.502 367.363 506.327 365.36 503.828 363.947C501.732 362.736 499.021 361.762 495.679 361.083L492.109 360.5C487.052 359.846 481.439 359.453 475.282 359.333L456.476 358.786C450.155 358.539 444.312 357.897 438.96 356.841H438.925C434.88 355.985 431.324 354.699 428.302 352.953L425.474 351.044C421.701 348.065 419.871 343.814 419.871 338.636C419.871 332.4 422.283 327.413 427.153 323.983L428.938 322.799C433.237 320.175 438.433 318.381 444.439 317.337C451.196 316.164 458.189 315.57 465.402 315.57C474.079 315.57 482.335 316.247 490.165 317.602L495.998 318.787C499.798 319.687 503.429 320.803 506.886 322.145L511.941 324.337L511.994 324.354L513.16 325.114C514.2 325.992 514.846 327.198 515.016 328.649L515.034 328.791V328.914C515.034 330.27 514.545 331.496 513.655 332.503C512.788 333.481 511.604 334.182 510.155 334.182C509.859 334.181 509.515 334.154 509.166 334.076C508.966 334.03 508.707 333.923 508.423 333.775C502.916 331.254 496.581 329.251 489.422 327.766C482.311 326.231 474.422 325.45 465.791 325.45C459.893 325.45 454.273 325.921 448.929 326.864L448.911 326.882C443.699 327.755 439.597 329.246 436.521 331.265C433.72 333.106 432.42 335.497 432.42 338.636ZM932.115 327.907C932.115 329.156 931.731 330.484 930.612 331.424C929.568 332.302 928.241 332.538 927.042 332.538C926.08 332.538 925.1 332.297 924.143 331.937L924.002 331.884C922.009 330.982 919.217 330.018 915.588 329.003C912.014 328.003 908.063 327.165 903.728 326.511H903.693C899.463 325.804 895.298 325.45 891.214 325.45C877.912 325.45 868.279 327.313 861.997 330.735L859.505 332.29C853.667 336.508 850.508 343.626 850.508 354.261C850.509 364.899 853.865 371.909 860.106 375.966L862.757 377.468C869.345 380.761 878.721 382.523 891.108 382.523C895.266 382.523 899.461 382.198 903.693 381.551L909.932 380.367C911.912 379.937 913.797 379.471 915.588 378.971C919.217 377.956 922.009 376.991 924.002 376.09L924.143 376.019C925.098 375.66 926.081 375.436 927.042 375.436C928.241 375.436 929.568 375.672 930.612 376.549C931.728 377.488 932.113 378.802 932.115 380.049C932.115 382.393 930.644 383.996 928.721 384.909L928.703 384.927C922.699 387.737 916.416 389.707 909.862 390.831C903.462 391.878 897.233 392.403 891.214 392.404C883.525 392.404 876.479 391.807 870.093 390.618L863.924 389.24C855.929 387.082 849.537 383.247 844.905 377.68C840.18 371.933 837.959 364.022 837.959 354.261C837.959 344.587 839.979 336.707 844.322 330.912L846.072 328.844C850.307 324.216 855.985 320.929 862.987 318.928C870.875 316.674 880.301 315.57 891.214 315.57C897.24 315.57 903.457 316.122 909.862 317.231L909.844 317.249C916.404 318.312 922.695 320.234 928.703 323.046L930.064 323.877C931.286 324.82 932.112 326.154 932.115 327.907ZM740.975 326.193C740.975 324.846 740.777 323.607 740.392 322.463L740.374 322.357C740.345 322.258 740.304 322.198 740.304 322.198C740.304 322.198 740.257 322.162 740.198 322.127C740.054 322.047 739.685 321.915 738.925 321.915C738.343 321.916 738.117 322.036 738.059 322.074L737.988 322.127C737.988 322.127 737.946 322.194 737.918 322.269L737.582 324.142C737.508 324.798 737.476 325.483 737.476 326.193V382.877C737.476 385.039 737.756 386.158 737.988 386.624C738.087 386.73 738.411 386.96 739.438 386.96C739.931 386.959 740.139 386.873 740.198 386.836C740.233 386.813 740.318 386.742 740.41 386.483C740.784 385.419 740.975 384.223 740.975 382.877V326.193ZM745.5 382.877C745.5 384.676 745.231 386.387 744.67 387.985C744.294 389.052 743.638 389.993 742.637 390.636C741.66 391.263 740.543 391.484 739.438 391.485C737.379 391.485 735.288 390.882 734.1 388.975L734.029 388.869C733.2 387.364 732.951 385.227 732.951 382.877V381.445C731.645 382.458 730.203 383.489 728.603 384.503C725.021 386.772 720.551 388.648 715.258 390.141C709.845 391.668 703.297 392.403 695.674 392.404C681.2 392.404 670.283 389.855 663.505 384.255C656.644 378.519 653.448 369.438 653.448 357.619V326.193C653.448 324.39 653.727 322.655 654.279 321.014L654.615 320.201C655.018 319.422 655.614 318.752 656.4 318.256C657.413 317.619 658.584 317.39 659.74 317.39C660.946 317.391 662.174 317.597 663.222 318.239C664.315 318.908 664.999 319.928 665.308 321.12C665.771 322.73 666.015 324.428 666.015 326.193V357.619C666.015 364.155 666.864 369.152 668.419 372.749L669.038 373.951C670.634 376.673 673.166 378.738 676.797 380.119C681.046 381.678 687.282 382.523 695.674 382.523C704.841 382.523 712.503 381.245 718.722 378.776L723.353 376.85C727.206 375.155 730.383 373.443 732.951 371.794V326.193C732.951 324.457 733.136 322.79 733.517 321.208L733.534 321.102C733.864 319.961 734.535 318.957 735.585 318.274C736.597 317.616 737.772 317.391 738.925 317.39C740.161 317.39 741.412 317.605 742.478 318.221C743.604 318.875 744.368 319.891 744.723 321.12C745.253 322.732 745.5 324.426 745.5 326.193V382.877ZM827.902 322.357L827.548 322.198C825.727 321.727 823.629 321.261 821.256 320.784C819.08 320.346 815.479 320.095 810.35 320.095C807.045 320.095 803.104 320.5 798.508 321.332C794.104 322.129 790.011 323.668 786.242 325.998L786.259 326.016C784.692 327.002 783.346 328.219 782.212 329.675C784.005 328.192 786.035 326.905 788.327 325.857L790.802 324.814C796.676 322.519 803.201 321.385 810.35 321.385C813.19 321.385 815.879 321.569 818.41 321.95C820.901 322.326 823.494 322.858 826.17 323.541C826.314 323.57 826.447 323.606 826.594 323.647H826.806C827.161 323.647 827.368 323.596 827.46 323.559C827.531 323.53 827.566 323.506 827.566 323.506L827.637 323.4L827.902 323.011C827.947 322.904 827.954 322.819 827.955 322.746C827.955 322.504 827.918 322.391 827.902 322.357ZM832.48 322.746C832.478 324.169 831.915 325.423 830.995 326.44L830.977 326.422C830.164 327.378 829.117 327.892 827.99 328.084L826.806 328.172H825.339L825.056 327.925L825.039 327.907C822.5 327.259 820.061 326.773 817.739 326.422C815.456 326.078 812.993 325.91 810.35 325.91C803.683 325.91 797.725 326.958 792.446 329.021L790.218 329.975C784.762 332.471 781.143 336.31 779.189 341.535V382.877C779.189 384.676 778.92 386.387 778.358 387.985C777.976 389.072 777.294 390.017 776.273 390.654C775.282 391.27 774.142 391.483 773.021 391.485C771.837 391.485 770.643 391.277 769.609 390.689C768.528 390.073 767.77 389.136 767.364 387.985L767.329 387.879C766.858 386.312 766.64 384.64 766.64 382.877V324.743C766.64 323.065 766.956 321.474 767.718 320.095L767.753 320.059L768.248 319.352C769.52 317.855 771.493 317.391 773.409 317.39C775.317 317.39 777.313 318.061 778.235 320.112C778.894 321.476 779.189 323.062 779.189 324.743V326.228C780.516 324.666 782.067 323.305 783.855 322.18L787.125 320.36C790.451 318.711 793.977 317.551 797.695 316.878C802.467 316.014 806.697 315.57 810.35 315.57C815.527 315.57 819.498 315.816 822.14 316.347C824.576 316.837 826.759 317.318 828.68 317.814L830.2 318.451C830.679 318.739 831.123 319.107 831.49 319.582C832.221 320.527 832.48 321.654 832.48 322.746Z" fill="black"/>
<path d="M1197.13 249.374L1209.93 262.173L1112.84 359.259L1100.05 346.461L1197.13 249.374ZM1100.05 152.288V346.461L1112.84 359.259L1110.62 361.159C1099.85 369.049 1084.21 362.576 1082.17 349.385L1081.95 346.461V152.288C1081.95 136.166 1101.44 128.091 1112.84 139.49L1209.93 236.576C1217 243.645 1217 255.104 1209.93 262.173L1100.05 152.288Z" fill="black"/>
<path d="M21.2074 202.198C49.4804 173.925 95.309 173.925 123.582 202.198C151.855 230.471 151.855 276.3 123.582 304.573L120.878 307.154C93.3773 331.993 51.4121 331.993 23.9117 307.154L21.2074 304.573C-6.17929 277.186 -7.04291 233.323 18.6269 204.903L21.2074 202.198ZM110.785 214.995C89.5804 193.791 55.209 193.791 34.0042 214.995C12.7995 236.2 12.7995 270.571 34.0042 291.776C55.209 312.981 89.5804 312.981 110.785 291.776C131.99 270.571 131.99 236.2 110.785 214.995Z" fill="black"/>
</svg>
