<svg width="583" height="512" viewBox="0 0 583 512" fill="none" xmlns="http://www.w3.org/2000/svg">
<path d="M26.8177 512H379.259C389.732 512 398.222 503.51 398.222 493.037V140.595C398.222 123.701 377.796 115.241 365.85 127.187L13.4088 479.628C1.46282 491.574 9.92347 512 26.8177 512Z" fill="black"/>
<path d="M369.856 0H18.963C8.49001 0 0 8.49001 0 18.963V353.906C0 370.588 19.9891 379.142 32.0564 367.623L382.949 32.6799C395.324 20.8675 386.963 0 369.856 0Z" fill="black"/>
<path d="M442.49 155.353L442.49 358.786C442.49 375.68 462.916 384.141 474.862 372.195L576.579 270.478C583.984 263.073 583.984 251.066 576.579 243.661L474.862 141.944C462.916 129.998 442.49 138.459 442.49 155.353Z" fill="black"/>
</svg>
