<svg width="583" height="512" viewBox="0 0 583 512" fill="none" xmlns="http://www.w3.org/2000/svg">
<path d="M379.259 512H26.8148C9.92318 511.998 1.46417 491.575 13.4074 479.63L365.852 127.185L368.185 125.185C379.468 116.923 395.85 123.714 397.981 137.537L398.222 140.593V493.037C398.222 503.51 389.732 512 379.259 512ZM379.259 140.593L26.8148 493.037H379.259V140.593Z" fill="black"/>
<path d="M18.963 0H369.852C386.959 0 395.319 20.8728 382.944 32.6852L32.0556 367.63L29.7037 369.556C18.3762 377.473 2.3177 370.604 0.222222 356.944L0 353.907V18.963C0 8.49001 8.49001 0 18.963 0ZM18.963 353.907L369.852 18.963H18.963V353.907Z" fill="black"/>
<path d="M563.171 257.071L576.58 270.48L474.861 372.199L461.452 358.79L563.171 257.071ZM461.452 155.353L461.452 358.79L474.861 372.199L472.53 374.189C461.249 382.456 444.863 375.674 442.727 361.854L442.491 358.79V155.353C442.493 138.461 462.915 130.001 474.861 141.944L576.58 243.662C583.985 251.068 583.985 263.074 576.58 270.48L461.452 155.353Z" fill="black"/>
</svg>
