<svg width="398" height="512" viewBox="0 0 398 512" fill="none" xmlns="http://www.w3.org/2000/svg">
<path d="M379.048 512H26.7999C9.91765 511.998 1.46336 491.575 13.3999 479.63L365.648 127.185L367.98 125.185C379.256 116.923 395.629 123.714 397.759 137.537L398 140.593V493.037C398 503.51 389.515 512 379.048 512ZM379.048 140.593L26.7999 493.037H379.048V140.593Z" fill="black"/>
<path d="M18.9524 0H369.645C386.744 0 395.099 20.8728 382.731 32.6852L32.0377 367.63L29.6871 369.556C18.3659 377.473 2.31641 370.604 0.222098 356.944L0 353.907V18.963C0 8.49001 8.48527 0 18.9524 0ZM18.9524 353.907L369.645 18.963H18.9524V353.907Z" fill="black"/>
</svg>
