<svg width="1234" height="512" viewBox="0 0 1234 512" fill="none" xmlns="http://www.w3.org/2000/svg">
<path d="M1070.39 15.8925L791.513 374.502V15.8925H710.42V466.587H644.758V15.8925H470.245V88.017H567.816V466.587H403.702V15.8925H229.231V88.017H326.761V466.587H163.611V15.8925H82.5182V466.587H15.8915V496.107H798.347L1070.39 145.759V496.107H1218.11V466.587H1151.48V15.8925H1070.39ZM1167.37 450.694H1234V512H1054.54V192.094L810.926 505.878L806.146 512H0V450.694H66.6268V0H179.46V450.694H310.869V103.91H213.34V0H419.594V450.694H551.925V103.91H454.354V0H660.649V450.694H694.529V0H807.362V328.208L1057.85 6.1222L1062.63 0H1167.37V450.694Z" fill="black"/>
</svg>
