<svg width="5916" height="512" viewBox="0 0 5916 512" fill="none" xmlns="http://www.w3.org/2000/svg">
<path d="M3138.57 481.25V511.999H2984.12L2864.71 343.954H2753.88V511.999H2600.15V481.25H2669.51V12.1552H2855.41C2931.68 12.1552 2986.27 25.0267 3019.16 50.7697C3052.05 76.5128 3068.49 117.749 3068.49 174.479C3068.49 256.952 3032.5 308.915 2960.52 330.368L3069.21 481.25H3138.57ZM2858.99 267.44C2906.66 267.44 2939.07 260.051 2956.23 245.273C2973.39 230.494 2981.98 206.896 2981.98 174.479C2981.98 141.585 2973.16 119.179 2955.52 107.261C2937.88 94.8666 2906.42 88.6692 2861.13 88.6692H2753.88V267.44H2858.99Z" fill="black"/>
<path d="M2223.11 481.25V12.1552H2574.19V91.5295H2307.49V223.82H2547.02V298.904H2307.49V432.625H2582.77V481.25H2652.13V511.999H2153.75V481.25H2223.11Z" fill="black"/>
<path d="M2175.32 481.251V512H1634.04V481.251H1807.08C1765.61 460.276 1732.48 429.527 1707.69 389.006C1683.38 348.484 1671.22 302.719 1671.22 251.709C1671.22 178.771 1696.49 118.704 1747.02 71.5084C1797.55 23.8361 1858.8 0 1930.78 0C2003.24 0 2063.3 20.9758 2110.97 62.9274L2065.92 127.285C2046.38 110.6 2026.59 99.1583 2006.57 92.9609C1987.03 86.2868 1964.15 82.9497 1937.93 82.9497C1886.93 82.9497 1844.26 98.2048 1809.94 128.715C1776.1 159.225 1759.17 200.939 1759.17 253.855C1759.17 306.771 1775.86 349.438 1809.23 381.855C1842.59 413.795 1882.87 429.765 1930.07 429.765C1977.73 429.765 2017.54 419.516 2049.48 399.017V261.721H2133.85V432.626C2116.21 452.171 2094.76 468.38 2069.5 481.251H2175.32Z" fill="black"/>
<path d="M1257.01 481.25V12.1552H1608.09V91.5295H1341.39V223.82H1580.92V298.904H1341.39V432.625H1616.67V481.25H1686.03V511.999H1187.65V481.25H1257.01Z" fill="black"/>
<path d="M1209.45 481.25V511.999H777.571V481.25H951.324V89.3843H799.737V12.1552H1187.28V89.3843H1035.7V481.25H1209.45Z" fill="black"/>
<path d="M270.657 481.25V12.1552H355.031L645.334 385.429V12.1552H729.708V481.25H799.066V511.999H638.184L355.031 147.306V511.999H201.299V481.25H270.657Z" fill="black"/>
<path d="M69.3581 481.25V12.1552H153.732V481.25H223.09V511.999H0V481.25H69.3581Z" fill="black"/>
<path d="M3514.83 481.25V12.1552H3163.75V91.5295H3430.45V223.82H3190.92V298.904H3430.45V432.625H3155.17V481.25H3085.81V511.999H3584.19V481.25H3514.83Z" fill="black"/>
<path d="M3516.55 481.25V511.999H3967.73V481.25H3898.38V12.1552H3814V431.909H3585.91V481.25H3516.55Z" fill="black"/>
<path d="M4344.76 481.25V12.1552H3993.68V91.5295H4260.39V223.82H4020.85V298.904H4260.39V432.625H3985.1V481.25H3915.74V511.999H4414.12V481.25H4344.76Z" fill="black"/>
<path d="M4392.81 481.25V511.999H4893.33V481.25H4703.14L4891.19 12.1552H4796.8L4643.07 385.429L4489.34 12.1552H4394.96L4583.73 481.25H4392.81Z" fill="black"/>
<path d="M5270.37 481.25V12.1552H4919.29V91.5295H5186V223.82H4946.46V298.904H5186V432.625H4910.71V481.25H4841.35V511.999H5339.73V481.25H5270.37Z" fill="black"/>
<path d="M5846.64 481.25V12.1552H5762.27L5471.96 385.429V12.1552H5387.59V481.25H5318.23V511.999H5479.11L5762.27 147.306V511.999H5916V481.25H5846.64Z" fill="black"/>
</svg>
