<svg width="5588" height="512" viewBox="0 0 5588 512" fill="none" xmlns="http://www.w3.org/2000/svg">
<path d="M1569.8 251.962C1569.8 179.42 1595.13 118.816 1645.92 71.3742C1696.37 23.8013 1757.73 0.00213356 1829.12 0C1900.38 0 1960.62 20.7262 2008.63 62.97L2019.08 72.1531L2011.09 83.55L1958.99 157.999L1945.99 146.93C1928.89 132.328 1912.12 122.773 1895.73 117.7L1895.28 117.577V117.495C1878.92 111.911 1859.18 108.968 1835.84 108.968C1791.32 108.968 1755.04 122.15 1725.98 147.955L1726.02 147.996C1698.05 173.221 1683.47 207.897 1683.47 253.971C1683.47 300.059 1697.84 335.877 1725.69 362.979L1731.06 367.94C1758.33 391.813 1790.57 403.688 1828.46 403.688V419.226L1820.22 419.021C1782.15 417.38 1749.03 404.278 1720.9 379.665L1714.95 374.212C1685.57 345.667 1669.98 308.662 1668.14 263.195L1667.93 253.971C1667.94 204.275 1683.83 165.09 1715.61 136.435C1747.85 107.777 1787.93 93.4717 1835.84 93.4711L1853.72 94.045C1871.02 95.2199 1886.55 98.1563 1900.33 102.859C1919.13 108.68 1937.72 119.412 1956.08 135.082L1998.38 74.6539C1956.4 37.7099 1904.19 18.0911 1841.75 15.7835L1829.12 15.5375C1761.52 15.5396 1704 37.9239 1656.54 82.6891L1647.89 91.1753C1606.18 134.149 1585.33 187.742 1585.33 251.962L1585.87 269.713C1588.36 310.555 1599.58 347.635 1619.56 380.936C1642.85 418.997 1673.99 447.858 1712.95 467.56H1534.09V421.891H1275.51V296.279H1500.52V225.765H1275.51V101.506H1526.02V26.9754H1196.27V467.56H988.389V99.4975H1130.76V26.9754H766.738V99.4975H909.108V467.56H700.944V26.9754H621.704V377.574L349.017 26.9754H269.777V467.56H159.956V26.9754H80.6748V467.56H15.5365V496.463H349.017V153.899L614.981 496.463H2602.25V338.628H2706.38L2818.53 496.463H5162.12L5428.09 153.899V496.463H5572.46V467.56H5507.33V26.9754H5428.09L5155.4 377.574V26.9754H5076.12V467.56H4966.01V26.9754H4636.26V101.506H4886.77V225.765H4661.76V296.279H4886.77V421.891H4628.18V467.56H4433.22L4609.86 26.9754H4521.19L4376.81 377.574L4232.39 26.9754H4143.77L4321.06 467.56H4096.58V26.9754H3766.83V101.506H4017.34V225.765H3792.33V296.279H4017.34V421.891H3758.76V467.56H3677.3V26.9754H3598.06V421.235H3383.79V467.56H3317.05V26.9754H2987.26V101.506H3237.77V225.765H3012.8V296.279H3237.77V421.891H2979.19V467.56H2898.47L2796.36 325.837C2859.74 306.947 2893.44 262.887 2897.41 193.624L2897.77 179.44C2897.77 129.487 2884.22 92.3052 2857.07 67.9305L2851.45 63.216C2824.42 42.059 2781.78 30.1529 2723.55 27.5084L2697.65 26.9754V11.4379C2770.23 11.4381 2825.9 23.528 2861 50.9991C2896.9 79.092 2913.31 123.206 2913.31 179.44C2913.31 220.373 2904.37 255.309 2885.19 282.996C2869.63 305.459 2847.94 322.078 2820.95 333.421L2906.42 452.064H2963.65V406.353H3222.24V311.816H2997.27V210.228H3222.24V117.044H2971.73V11.4379H3332.55V452.064H3368.25V405.697H3582.53V11.4379H3692.84V452.064H3743.22V406.353H4001.81V311.816H3776.83V210.228H4001.81V117.044H3751.3V11.4379H4112.12V452.064H4298.06L4120.77 11.4379H4242.81L4246.78 21.031L4376.77 336.742L4506.84 21.031L4510.82 11.4379H4981.55V452.064H5060.58V11.4379H5170.93V332.273L5415.83 17.4233L5420.46 11.4379H5522.86V452.064H5588V512H5412.55V199.2L5169.7 512H2810.54L2805.87 505.441L2698.38 354.165H2617.79V512H607.398L364.553 199.2V512H0V452.064H65.1383V11.4379H175.451V452.064H254.24V11.4379H356.601L361.274 17.4233L606.168 332.273V11.4379H716.481V452.064H893.572V115.035H751.202V11.4379H1146.3V115.035H1003.93V452.064H1180.73V11.4379H1541.55V117.044H1291.04V210.228H1516.05V311.816H1291.04V406.353H1549.63V452.064H1660.84C1639.58 434.613 1621.35 413.625 1606.32 389.053L1606.28 388.93C1581.88 348.263 1569.8 302.459 1569.8 251.962ZM2507.48 11.4379H2697.65V26.9754H2523.01V467.56H2441.56V421.891H2182.97V296.279H2407.99V225.765H2182.97V101.506H2433.48V26.9754H2103.73V467.56H1959.44C1983.16 455.471 2003.3 440.246 2019.86 421.891V261.391H1940.62V390.324C1910.62 409.578 1873.24 419.225 1828.46 419.226V403.688C1867.37 403.688 1899.31 395.944 1925.09 381.428V245.853H2035.4V427.876L2031.42 432.304C2025.07 439.339 2018.21 445.909 2010.93 452.064H2088.2V11.4379H2449.02V117.044H2198.51V210.228H2423.48V311.816H2198.51V406.353H2457.1V452.064H2507.48V11.4379ZM4620.72 41.611L4456.18 452.064H4612.65V406.353H4871.23V311.816H4646.26V210.228H4871.23V117.044H4620.72V41.611ZM2800.99 179.44C2800.99 150.787 2793.31 136.165 2782.99 129.179L2782.75 129.015C2770.43 120.357 2745.21 114.338 2703.02 114.338H2617.79V251.224H2701.01V266.761H2602.25V98.8415H2703.02C2745.55 98.8415 2775.12 104.663 2791.68 116.306C2808.24 127.503 2816.53 148.553 2816.53 179.44L2816.16 190.468C2814.39 215.294 2806.44 233.791 2792.34 245.935L2789.14 248.436C2772.35 260.634 2742.98 266.761 2701.01 266.761V251.224C2722.69 251.224 2740.25 249.514 2753.97 246.386C2767.79 243.236 2776.76 238.862 2782.21 234.17L2786.31 230.111C2795.36 219.898 2800.99 203.865 2800.99 179.44Z" fill="black"/>
</svg>
