<svg width="494" height="512" viewBox="0 0 494 512" fill="none" xmlns="http://www.w3.org/2000/svg">
<path d="M236.335 0H18.963C8.49001 0 0 8.49001 0 18.963V221.844C0 238.424 19.7802 247.02 31.9017 235.707L249.274 32.8259C261.856 21.0824 253.546 0 236.335 0Z" fill="black"/>
<path d="M254.373 436.148H474.074C484.547 436.148 493.037 427.658 493.037 417.185V197.484C493.037 180.59 472.611 172.13 460.665 184.076L240.964 403.776C229.018 415.722 237.479 436.148 254.373 436.148Z" fill="black"/>
<path d="M466.219 75.8519H246.519C236.046 75.8519 227.556 84.3419 227.556 94.8148V314.516C227.556 331.41 247.981 339.87 259.927 327.924L479.628 108.224C491.574 96.2777 483.114 75.8519 466.219 75.8519Z" fill="black"/>
<path d="M238.664 512H18.963C8.49001 512 0 503.51 0 493.037V273.336C0 256.442 20.4258 247.981 32.3718 259.927L252.073 479.628C264.019 491.574 255.558 512 238.664 512Z" fill="black"/>
</svg>
