<svg width="493" height="512" viewBox="0 0 493 512" fill="none" xmlns="http://www.w3.org/2000/svg">
<path d="M18.9615 0H236.316C253.525 0 261.84 21.0898 249.259 32.8333L31.905 235.704L29.5348 237.593C18.1845 245.352 2.2887 238.447 0.222206 224.852L0 221.852V18.963C3.66485e-06 8.49001 8.48937 0 18.9615 0ZM18.9615 221.852L236.316 18.963H18.9615V221.852Z" fill="black"/>
<path d="M474.038 436.148H254.351C237.461 436.146 229.003 415.723 240.945 403.778L460.632 184.074L462.965 182.074C474.247 173.812 490.628 180.603 492.759 194.426L493 197.481V417.185C493 427.658 484.511 436.148 474.038 436.148ZM474.038 197.481L254.351 417.185H474.038V197.481Z" fill="black"/>
<path d="M246.5 75.8519H466.187C483.078 75.8542 491.536 96.2767 479.594 108.222L259.906 327.926L257.573 329.926C246.291 338.188 229.91 331.397 227.779 317.574L227.538 314.519V94.8148C227.538 84.3419 236.028 75.8519 246.5 75.8519ZM246.5 314.519L466.187 94.8148H246.5V314.519Z" fill="black"/>
<path d="M18.9615 512H238.649C255.539 511.998 263.997 491.575 252.055 479.63L32.3679 259.926L30.0348 257.926C18.7526 249.664 2.37195 256.455 0.240723 270.278L0 273.333V493.037C0 503.51 8.48937 512 18.9615 512ZM18.9615 273.333L238.649 493.037H18.9615V273.333Z" fill="black"/>
</svg>
